<!--SVG collection symbol sprite-->
<svg xmlns="http://www.w3.org/2000/svg" width="0" height="0" display="none">
    <title>SVG symbol sprite for fitness 365 CRM</title>
    <!--crm logo-->
    <symbol id="crm-logo" viewBox="0 0 88 20">
        <g fill="currentColor">
            <path d="M9.8,15.4H7.5l1.1-7.9h-3l-1,7.1c-0.1,0.9-0.4,1.7-0.7,2.3c-0.3,0.6-0.8,1.1-1.3,1.4c-0.5,0.4-1.2,0.7-2,1
			L0,17.7c0.5-0.2,0.9-0.4,1.2-0.6c0.3-0.2,0.6-0.5,0.8-0.9c0.2-0.4,0.3-0.9,0.4-1.5l1-7.1H1.8l0.2-1.7h1.5l0.2-1.1
			C3.9,3.9,4.3,3.2,5,2.7c0.7-0.5,1.6-0.8,2.6-0.8c0.6,0,1.1,0.1,1.6,0.2s0.9,0.3,1.4,0.6L9.7,4.1C9.1,3.8,8.4,3.6,7.8,3.6
			c-0.6,0-1,0.1-1.2,0.3C6.2,4.1,6.1,4.5,6,4.9l-0.1,1h5.2L9.8,15.4z"/>
            <path d="M15.4,12.6c0,0.2,0,0.4,0,0.4c0,0.3,0.1,0.5,0.2,0.6c0.1,0.1,0.3,0.2,0.6,0.2c0.3,0,0.7-0.1,1.2-0.3l0.6,1.5
			c-0.7,0.5-1.5,0.7-2.4,0.7c-0.8,0-1.4-0.2-1.9-0.6S13,14,13,13.2c0-0.2,0-0.5,0.1-0.7l0.7-5h-1.5l0.2-1.7h1.6l0.6-2.2l1.9-0.2
			l-0.3,2.4h2.2L18,7.6h-1.9L15.4,12.6z"/>
            <path d="M27.2,6.3c0.4,0.4,0.6,1,0.6,1.7c0,0.2,0,0.4-0.1,0.6l-1,6.8h-2.3L25.4,9c0-0.2,0-0.4,0-0.5
			c0-0.4-0.1-0.6-0.2-0.8s-0.3-0.2-0.6-0.2c-0.8,0-1.7,0.8-2.5,2.4l-0.8,5.5h-2.3l1.3-9.5h2l-0.1,1.8c0.9-1.4,2-2,3.3-2
			C26.3,5.6,26.8,5.8,27.2,6.3z"/>
            <path d="M36.2,10.8c-1.1,0.6-2.6,0.9-4.5,1.1c0,1.3,0.7,2,1.9,2c0.4,0,0.8-0.1,1.2-0.2s0.8-0.4,1.2-0.7l0.9,1.4
			c-1.2,0.8-2.4,1.2-3.6,1.2c-1.3,0-2.2-0.4-2.9-1.1c-0.7-0.7-1-1.7-1-2.9c0-1,0.2-1.9,0.5-2.8s0.9-1.7,1.7-2.3
			c0.8-0.6,1.8-0.9,3-0.9c0.7,0,1.3,0.1,1.8,0.3c0.5,0.2,0.9,0.5,1.1,0.9c0.3,0.4,0.4,0.8,0.4,1.3C37.9,9.4,37.3,10.3,36.2,10.8z
			 M34.6,9.7c0.6-0.4,0.9-0.8,0.9-1.4c0-0.3-0.1-0.5-0.3-0.7c-0.2-0.2-0.4-0.3-0.8-0.3c-0.8,0-1.3,0.3-1.8,0.9
			c-0.4,0.6-0.7,1.3-0.9,2.2C33.1,10.3,34,10,34.6,9.7z"/>
            <path d="M46.3,6.8l-1,1.3c-0.7-0.5-1.5-0.8-2.3-0.8c-0.5,0-0.9,0.1-1.1,0.3c-0.3,0.2-0.4,0.4-0.4,0.7
			c0,0.3,0.1,0.5,0.4,0.7c0.3,0.2,0.7,0.4,1.5,0.6c0.9,0.3,1.5,0.6,1.9,1.1c0.4,0.5,0.6,1,0.6,1.8c0,0.6-0.2,1.2-0.5,1.7
			c-0.3,0.5-0.8,0.9-1.4,1.1c-0.6,0.3-1.4,0.4-2.2,0.4c-0.8,0-1.5-0.1-2.2-0.4c-0.6-0.3-1.2-0.6-1.6-1.1l1.2-1.2
			c0.8,0.7,1.6,1,2.6,1c0.6,0,1-0.1,1.3-0.4c0.3-0.2,0.4-0.5,0.4-0.9c0-0.3-0.1-0.5-0.2-0.6c-0.1-0.2-0.3-0.3-0.6-0.4
			c-0.3-0.1-0.7-0.3-1.2-0.5c-0.9-0.3-1.5-0.6-1.9-1.1c-0.4-0.4-0.6-1-0.6-1.6c0-0.5,0.1-1,0.4-1.4c0.3-0.4,0.7-0.8,1.3-1.1
			c0.6-0.3,1.3-0.4,2.1-0.4C44.3,5.6,45.4,6,46.3,6.8z"/>
            <path d="M54.6,6.8l-1,1.3c-0.7-0.5-1.5-0.8-2.3-0.8c-0.5,0-0.9,0.1-1.1,0.3c-0.3,0.2-0.4,0.4-0.4,0.7
			c0,0.3,0.1,0.5,0.4,0.7c0.3,0.2,0.7,0.4,1.5,0.6c0.9,0.3,1.5,0.6,1.9,1.1c0.4,0.5,0.6,1,0.6,1.8c0,0.6-0.2,1.2-0.5,1.7
			c-0.3,0.5-0.8,0.9-1.4,1.1c-0.6,0.3-1.4,0.4-2.2,0.4c-0.8,0-1.5-0.1-2.2-0.4c-0.6-0.3-1.2-0.6-1.6-1.1l1.2-1.2
			c0.8,0.7,1.6,1,2.6,1c0.6,0,1-0.1,1.3-0.4c0.3-0.2,0.4-0.5,0.4-0.9c0-0.3-0.1-0.5-0.2-0.6c-0.1-0.2-0.3-0.3-0.6-0.4
			c-0.3-0.1-0.7-0.3-1.2-0.5C49,11,48.4,10.6,48,10.2c-0.4-0.4-0.6-1-0.6-1.6c0-0.5,0.1-1,0.4-1.4c0.3-0.4,0.7-0.8,1.3-1.1
			c0.6-0.3,1.3-0.4,2.1-0.4C52.6,5.6,53.7,6,54.6,6.8z"/>
        </g>
        <path fill="#17A2B8" d="M66.9,3.9c0.6,0.5,0.9,1.2,0.9,2.1c0,0.7-0.2,1.3-0.7,1.9S66,8.8,65,9c0.7,0.1,1.2,0.3,1.7,0.7
		c0.4,0.4,0.6,1,0.6,1.8c0,0.6-0.2,1.3-0.5,1.9c-0.3,0.6-0.9,1.2-1.6,1.6s-1.6,0.6-2.7,0.6c-0.8,0-1.5-0.2-2.2-0.5
		c-0.6-0.3-1.1-0.7-1.5-1.3l1.4-1.2c0.3,0.4,0.7,0.7,1,0.9s0.8,0.3,1.3,0.3c0.7,0,1.3-0.2,1.8-0.7c0.5-0.5,0.7-1.1,0.7-1.9
		c0-0.5-0.2-0.9-0.5-1.1s-0.8-0.3-1.4-0.3h-1l0.5-1.6h0.6c0.7,0,1.3-0.2,1.7-0.6c0.4-0.4,0.6-0.9,0.6-1.5c0-0.4-0.1-0.8-0.4-1
		C64.9,5,64.5,4.9,64,4.9c-0.5,0-0.9,0.1-1.3,0.3c-0.4,0.2-0.8,0.4-1.3,0.8l-1-1.4c0.6-0.5,1.2-0.9,1.9-1.1s1.3-0.4,2.1-0.4
		C65.4,3.1,66.3,3.4,66.9,3.9z"/>
        <path fill="#1CAF9A" d="M76.6,8.2c0.5,0.6,0.8,1.4,0.8,2.4c0,0.7-0.2,1.5-0.5,2.3s-0.8,1.4-1.5,2s-1.6,0.8-2.6,0.8
		c-1.3,0-2.2-0.4-2.8-1.1c-0.6-0.8-0.9-1.8-0.9-3.2c0-1.4,0.2-2.8,0.7-4c0.5-1.3,1.1-2.3,2-3.1c0.9-0.8,1.9-1.2,3.2-1.2
		c1,0,1.8,0.3,2.5,0.8l-1,1.4c-0.5-0.3-1-0.5-1.6-0.5c-0.8,0-1.4,0.3-2,1s-1,1.6-1.2,2.8c0.8-0.9,1.8-1.3,2.8-1.3
		C75.4,7.4,76.1,7.6,76.6,8.2z M74.2,13.4c0.3-0.4,0.6-0.8,0.7-1.3c0.1-0.5,0.2-1,0.2-1.5c0-0.6-0.1-1-0.3-1.2S74.3,9,73.9,9
		c-0.4,0-0.9,0.1-1.3,0.4c-0.4,0.2-0.8,0.6-1.1,1c-0.1,0.4-0.1,0.9-0.1,1.4c0,0.8,0.1,1.4,0.4,1.7c0.2,0.4,0.6,0.5,1.2,0.5
		C73.4,14,73.9,13.8,74.2,13.4z"/>
        <path fill="#DC3545" d="M86.5,5H82l-0.4,3c0.6-0.3,1.2-0.4,1.9-0.4c0.9,0,1.6,0.3,2.2,0.9c0.5,0.6,0.8,1.4,0.8,2.4
		c0,0.7-0.2,1.5-0.5,2.2c-0.3,0.7-0.9,1.4-1.6,1.9c-0.8,0.5-1.7,0.7-2.8,0.7c-0.8,0-1.5-0.2-2.1-0.5s-1.1-0.7-1.5-1.3l1.4-1.2
		c0.3,0.4,0.6,0.7,1,0.9c0.4,0.2,0.8,0.3,1.3,0.3c0.6,0,1.1-0.1,1.5-0.4c0.4-0.3,0.7-0.7,0.9-1.1c0.2-0.5,0.3-0.9,0.3-1.4
		c0-1.1-0.5-1.7-1.6-1.7c-0.3,0-0.6,0-0.8,0.1c-0.3,0.1-0.5,0.2-0.8,0.3h-1.7l0.9-6.3H87L86.5,5z"/>
    </symbol>
    <!--avatar-->
    <symbol id="ava-default" viewBox="0 0 200 200">
        <rect fill="#f5f6f8" width="200" height="200"/>
        <path fill="currentColor" d="M122.8,125c-0.5,0-0.9-0.4-0.9-0.8c0-0.9,0.2-2.4,1.3-3.9c1.8-2.4,4.2-5.4,4.2-5.4s1.2-1.2,1.2-5.4c0-4.2-1.2-6.5,1.2-8.9
	s5.4-3,6.5-4.8s3.6-7.7,3.6-16.7s-4.8-8.3-4.2-14.9c0.6-6.5,2.4-19,0-28c-2.4-8.9-3.6-10.1-6.5-11.3c-3-1.2-4.8,0.6-8.3-3.6
	c-3.6-4.2-13.1-7.1-22.6-6S64.3,22,61.3,36.3c-3,14.3-0.6,18.4,0,26.2c0.6,7.7,0,8.9-1.2,10.7c-1.2,1.8-0.6,16.7,3,22.6
	c3.6,6,6.5,0.6,6.5,5.4s0.6,15.5,2.4,16.7c1.8,1.2,8.3,7.1,1.8,7.1c-4.2,1.2-3,7.7-7.1,11.3c-4.2,3.6,0,3-7.7,4.2
	s-25.6,11.3-49.4,20.2c-4.2,1.6-9.5,3-9.5,19.6C0,200,0,200,0,200h200v-29.2c0,0,0-6-10.1-10.1c-10.1-4.2-43.5-17.9-43.5-17.9
	s-3.6-2.4-8.3-2.4c-4.1,0-8.6-10-9.8-12.9c-0.2-0.4-0.2-0.8-0.3-1.2c-0.1-0.5-0.7-1.4-3.6-1.4H122.8z"/>
    </symbol>
    <!--icons list-->
    <symbol id="icon-search" viewBox="0 0 512 512">
        <path fill="currentColor"
              d="M508.5 481.6l-129-129c-2.3-2.3-5.3-3.5-8.5-3.5h-10.3C395 312 416 262.5 416 208 416 93.1 322.9 0 208 0S0 93.1 0 208s93.1 208 208 208c54.5 0 104-21 141.1-55.2V371c0 3.2 1.3 6.2 3.5 8.5l129 129c4.7 4.7 12.3 4.7 17 0l9.9-9.9c4.7-4.7 4.7-12.3 0-17zM208 384c-97.3 0-176-78.7-176-176S110.7 32 208 32s176 78.7 176 176-78.7 176-176 176z"/>
    </symbol>
    <symbol id="icon-logout" viewBox="0 0 512 512">
        <path fill="currentColor" d="M48 64h132c6.6 0 12 5.4 12 12v8c0 6.6-5.4 12-12 12H48c-8.8 0-16 7.2-16 16v288c0 8.8 7.2 16 16 16h132c6.6 0 12 5.4 12 12v8c0 6.6-5.4 12-12 12H48c-26.5 0-48-21.5-48-48V112c0-26.5 21.5-48 48-48zm279 19.5l-7.1 7.1c-4.7 4.7-4.7 12.3 0 17l132 131.4H172c-6.6 0-12 5.4-12 12v10c0 6.6 5.4 12 12 12h279.9L320 404.4c-4.7 4.7-4.7 12.3 0 17l7.1 7.1c4.7 4.7 12.3 4.7 17 0l164.5-164c4.7-4.7 4.7-12.3 0-17L344 83.5c-4.7-4.7-12.3-4.7-17 0z"/>
    </symbol>
    <symbol id="icon-screen" viewBox="0 0 512 512">
        <path fill="currentColor" d="M469.3,28.4H42.7C19.1,28.4,0,47.6,0,71.1v256c0,23.6,19.1,42.7,42.7,42.7h170.7L192,455.1h-64
	c-7.8,0-14.2,6.4-14.2,14.2c0,7.8,6.4,14.2,14.2,14.2h256c7.8,0,14.2-6.4,14.2-14.2c0-7.8-6.4-14.2-14.2-14.2h-64l-21.3-85.3h170.7
	c23.6,0,42.7-19.1,42.7-42.7v-256C512,47.6,492.9,28.4,469.3,28.4z M221.3,455.1l14.2-56.9h40.9l14.2,56.9H221.3z M483.6,327.1
	c0,7.8-6.4,14.2-14.2,14.2H42.7c-7.8,0-14.2-6.4-14.2-14.2v-256c0-7.8,6.4-14.2,14.2-14.2h426.7c7.8,0,14.2,6.4,14.2,14.2V327.1z"/>
    </symbol>
    <symbol id="icon-speed" viewBox="0 0 512 512">
        <path fill="currentColor" d="M324.8,150.2c-7.4-2.7-15.5,1.2-18.2,8.6l-45.3,126c-33.6-3.1-62.2,23.3-62.2,56.6c0,31.4,25.5,56.9,56.9,56.9
	s56.9-25.5,56.9-56.9c0-19.5-9.8-36.8-24.8-47l45.3-126C336,161,332.2,152.8,324.8,150.2L324.8,150.2z M256,369.8
	c-15.7,0-28.4-12.8-28.4-28.4c0-15.7,12.8-28.4,28.4-28.4s28.4,12.8,28.4,28.4C284.4,357,271.7,369.8,256,369.8z M256,56.9
	c-141.4,0-256,114.6-256,256c0,43.2,10.7,83.8,29.6,119.5c7.4,14,21.9,22.7,37.7,22.7h377.4c15.8,0,30.3-8.7,37.7-22.7
	C501.3,396.7,512,356,512,312.9C512,171.5,397.4,56.9,256,56.9z M457.3,419.1c-2.5,4.7-7.3,7.6-12.6,7.6H67.3
	c-5.3,0-10.1-2.9-12.6-7.6c-16.8-31.7-26.3-67.8-26.3-106.2C28.4,187.3,130.2,85.3,256,85.3c125.6,0,227.6,101.8,227.6,227.6
	C483.6,349,475.1,385.4,457.3,419.1z"/>
    </symbol>
    <symbol id="icon-users" viewBox="0 0 512 512">
        <path fill="currentColor" d="M424.8,244.3c15-19.5,23.2-43.3,23.2-68.3c0-61.9-50-112-112-112c-61.9,0-112,50-112,112
	c0,25,8.2,48.8,23.2,68.3C234.3,248,176,270,176,337v60.7c0,27.7,22.6,50.3,50.3,50.3h219.4c27.7,0,50.3-22.6,50.3-50.3V337
	C496,270.1,437.8,248,424.8,244.3L424.8,244.3z M336,96c44.2,0,80,35.8,80,80s-35.8,80-80,80s-80-35.8-80-80S291.8,96,336,96z
	 M464,397.7c0,10.1-8.2,18.3-18.3,18.3H226.3c-10.1,0-18.3-8.2-18.3-18.3V337c0-28.6,18.9-53.7,46.4-61.5l20.2-5.8
	c18.1,11.9,39.2,18.3,61.4,18.3s43.3-6.4,61.4-18.3l20.2,5.8c27.5,7.9,46.4,33,46.4,61.5V397.7z M160,397.7V384H61.7
	c-7.6,0-13.7-6.1-13.7-13.7v-45.5c0-21.4,14.2-40.3,34.8-46.2l12.9-3.7c14.2,8.3,30.7,13.1,48.3,13.1c9.9,0,19.8-1.5,29.2-4.6
	c5.8-10.5,13.5-20.1,22.9-28.5c9.3-8.2,18.9-14.1,27.1-18.2c-10-18.5-15.2-39.1-15.2-60.7c0-16.2,3-32,8.7-46.6
	C199.1,109,173,96,144,96c-52.9,0-96,43.1-96,96c0,21.8,7.3,41.9,19.6,58C41.7,259.8,16,286.4,16,324.8v45.5
	c0,25.2,20.5,45.7,45.7,45.7h100.9C160.9,410.1,160,403.9,160,397.7z M144,128c35.3,0,64,28.7,64,64s-28.7,64-64,64s-64-28.7-64-64
	S108.7,128,144,128z"/>
    </symbol>
    <symbol id="icon-calendar" viewBox="0 0 512 512">
        <path fill="currentColor" d="M432,64h-48V12c0-6.6-5.4-12-12-12h-8c-6.6,0-12,5.4-12,12v52H160V12c0-6.6-5.4-12-12-12h-8
	c-6.6,0-12,5.4-12,12v52H80c-26.5,0-48,21.5-48,48v352c0,26.5,21.5,48,48,48h352c26.5,0,48-21.5,48-48V112C480,85.5,458.5,64,432,64
	z M80,96h352c8.8,0,16,7.2,16,16v48H64v-48C64,103.2,71.2,96,80,96z M432,480H80c-8.8,0-16-7.2-16-16V192h384v272
	C448,472.8,440.8,480,432,480z M180,320h-40c-6.6,0-12-5.4-12-12v-40c0-6.6,5.4-12,12-12h40c6.6,0,12,5.4,12,12v40
	C192,314.6,186.6,320,180,320z M276,320h-40c-6.6,0-12-5.4-12-12v-40c0-6.6,5.4-12,12-12h40c6.6,0,12,5.4,12,12v40
	C288,314.6,282.6,320,276,320z M372,320h-40c-6.6,0-12-5.4-12-12v-40c0-6.6,5.4-12,12-12h40c6.6,0,12,5.4,12,12v40
	C384,314.6,378.6,320,372,320z M276,416h-40c-6.6,0-12-5.4-12-12v-40c0-6.6,5.4-12,12-12h40c6.6,0,12,5.4,12,12v40
	C288,410.6,282.6,416,276,416z M180,416h-40c-6.6,0-12-5.4-12-12v-40c0-6.6,5.4-12,12-12h40c6.6,0,12,5.4,12,12v40
	C192,410.6,186.6,416,180,416z M372,416h-40c-6.6,0-12-5.4-12-12v-40c0-6.6,5.4-12,12-12h40c6.6,0,12,5.4,12,12v40
	C384,410.6,378.6,416,372,416z"/>
    </symbol>
    <symbol id="icon-comes" viewBox="0 0 512 512">
        <path fill="currentColor" d="M326.7,140.3C337.6,125.6,344,107.6,344,88c0-48.5-39.5-88-88-88s-88,39.5-88,88c0,19.6,6.4,37.6,17.3,52.3
	C156.6,150.5,136,177.9,136,210v74.6c0,24.7,17,45.6,40,51.4v59c0,29.2,23.8,53,53,53h54c29.2,0,53-23.8,53-53v-59
	c23-5.8,40-26.6,40-51.4V210C376,177.9,355.4,150.5,326.7,140.3z M256,32c30.9,0,56,25.1,56,56s-25.1,56-56,56s-56-25.1-56-56
	S225.1,32,256,32z M344,284.6c0,11.6-9.4,21-21,21h-19V395c0,11.6-9.4,21-21,21h-54c-11.6,0-21-9.4-21-21v-89.4h-19
	c-11.6,0-21-9.4-21-21V210c0-23.2,18.8-42,42-42h9.4c22.7,10.4,49.6,10.9,73.3,0h9.4c23.2,0,42,18.8,42,42V284.6z M512,416
	c0,77.1-178.6,96-256,96c-77.2,0-256-18.9-256-96c0-39.6,47-63.8,103.2-78c6.5,10.5,14.9,19.7,24.8,27.2v0.5
	c-51.8,10.5-96,27.3-96,50.4c0,46.3,167.7,64,224,64c70.3,0,224-20.9,224-64c0-24-44.9-40.3-96-50.4v-0.4
	c9.8-7.5,18.2-16.7,24.8-27.2C465,352.2,512,376.4,512,416z"/>
    </symbol>
    <symbol id="icon-code" viewBox="0 0 512 512">
        <path fill="currentColor" d="M121.6,51.2H6.4c-3.5,0-6.4,2.9-6.4,6.4v121.6c0,3.5,2.9,6.4,6.4,6.4h12.8c3.5,0,6.4-2.9,6.4-6.4V76.8h96
	c3.5,0,6.4-2.9,6.4-6.4V57.6C128,54.1,125.1,51.2,121.6,51.2z M121.6,435.2h-96V332.8c0-3.5-2.9-6.4-6.4-6.4H6.4
	c-3.5,0-6.4,2.9-6.4,6.4v121.6c0,3.5,2.9,6.4,6.4,6.4h115.2c3.5,0,6.4-2.9,6.4-6.4v-12.8C128,438.1,125.1,435.2,121.6,435.2z
	 M505.6,51.2H390.4c-3.5,0-6.4,2.9-6.4,6.4v12.8c0,3.5,2.9,6.4,6.4,6.4h96v102.4c0,3.5,2.9,6.4,6.4,6.4h12.8c3.5,0,6.4-2.9,6.4-6.4
	V57.6C512,54.1,509.1,51.2,505.6,51.2z M505.6,326.4h-12.8c-3.5,0-6.4,2.9-6.4,6.4v102.4h-96c-3.5,0-6.4,2.9-6.4,6.4v12.8
	c0,3.5,2.9,6.4,6.4,6.4h115.2c3.5,0,6.4-2.9,6.4-6.4V332.8C512,329.3,509.1,326.4,505.6,326.4z M121.6,128H83.2
	c-3.5,0-6.4,2.9-6.4,6.4v243.2c0,3.5,2.9,6.4,6.4,6.4h38.4c3.5,0,6.4-2.9,6.4-6.4V134.4C128,130.9,125.1,128,121.6,128z M390.4,384
	h38.4c3.5,0,6.4-2.9,6.4-6.4V134.4c0-3.5-2.9-6.4-6.4-6.4h-38.4c-3.5,0-6.4,2.9-6.4,6.4v243.2C384,381.1,386.9,384,390.4,384z
	 M326.4,128H288c-3.5,0-6.4,2.9-6.4,6.4v243.2c0,3.5,2.9,6.4,6.4,6.4h38.4c3.5,0,6.4-2.9,6.4-6.4V134.4
	C332.8,130.9,329.9,128,326.4,128z M172.8,128H160c-3.5,0-6.4,2.9-6.4,6.4v243.2c0,3.5,2.9,6.4,6.4,6.4h12.8c3.5,0,6.4-2.9,6.4-6.4
	V134.4C179.2,130.9,176.3,128,172.8,128z M224,128h-12.8c-3.5,0-6.4,2.9-6.4,6.4v243.2c0,3.5,2.9,6.4,6.4,6.4H224
	c3.5,0,6.4-2.9,6.4-6.4V134.4C230.4,130.9,227.5,128,224,128z"/>
    </symbol>
    <symbol id="icon-tasks" viewBox="0 0 512 512">
        <path fill="currentColor" d="M344,240H232c-4.4,0-8,3.6-8,8v16c0,4.4,3.6,8,8,8h112c4.4,0,8-3.6,8-8v-16C352,243.6,348.4,240,344,240z
	 M344,336H232c-4.4,0-8,3.6-8,8v16c0,4.4,3.6,8,8,8h112c4.4,0,8-3.6,8-8v-16C352,339.6,348.4,336,344,336z M176,232
	c-13.3,0-24,10.7-24,24c0,13.3,10.7,24,24,24s24-10.7,24-24S189.3,232,176,232z M176,328c-13.3,0-24,10.7-24,24s10.7,24,24,24
	s24-10.7,24-24S189.3,328,176,328z M400,64h-88.6c0.4-2.6,0.6-5.3,0.6-8c0-30.9-25.1-56-56-56s-56,25.1-56,56c0,2.7,0.2,5.4,0.6,8
	H112c-26.5,0-48,21.5-48,48v352c0,26.5,21.5,48,48,48h288c26.5,0,48-21.5,48-48V112C448,85.5,426.5,64,400,64z M256,32
	c13.3,0,24,10.7,24,24s-10.7,24-24,24c-13.3,0-24-10.7-24-24S242.7,32,256,32z M416,464c0,8.8-7.2,16-16,16H112c-8.8,0-16-7.2-16-16
	V112c0-8.8,7.2-16,16-16h48v20c0,6.6,5.4,12,12,12h168c6.6,0,12-5.4,12-12V96h48c8.8,0,16,7.2,16,16V464z"/>
    </symbol>
    <symbol id="icon-charts" viewBox="0 0 512 512">
        <path fill="currentColor" d="M260,28v211.7h212c6.9,0,12.4-5.8,12-12.7c-6.4-113.4-97.7-204.6-211.3-211C265.8,15.6,260,21.1,260,28z
	 M292,50c80.3,13.4,144.3,77.3,157.7,157.7H292V50z M284,271.7l150,150.2c4.9,4.9,12.9,4.6,17.5-0.5c34.9-39,53.8-88,56.5-137
	c0.4-6.9-5.1-12.7-12-12.7H284z M440.9,383.5l-79.6-79.9h112.4C468.9,332.2,457.7,359.9,440.9,383.5z M228,271.7V59.9
	c0-6.9-5.8-12.4-12.8-12C97.6,54.6,4.2,152.2,4,271.3c-0.3,193.1,229.6,296,373.1,168c5.2-4.6,5.4-12.6,0.5-17.5L228,271.7z
	 M36,271.7c0-96.6,70.8-174.6,160-189.5v189.5c0,16.3-2.4,10.8,9.4,22.6l133.9,134.4C213.3,518.6,36,427.7,36,271.7z"/>
    </symbol>
    <symbol id="icon-arrow" viewBox="0 0 256 256">
        <path fill="currentColor" d="M119.5,198.9L3.5,81.1c-4.7-4.7-4.7-12.3,0-17l7.1-7.1c4.7-4.7,12.3-4.7,17,0L128,159.3L228.4,57.1c4.7-4.7,12.3-4.7,17,0
	l7.1,7.1c4.7,4.7,4.7,12.3,0,17L136.5,199C131.8,203.6,124.2,203.6,119.5,198.9z"/>
    </symbol>
    <symbol id="icon-gear" viewBox="0 0 512 512">
        <path fill="currentColor" d="M482.7,299.3l-32.6-18.8c2-16.2,2.1-32.7,0-48.9l32.6-18.8c9.6-5.5,14.2-16.9,11-27.5
	c-11.2-37.7-31.2-71.7-57.5-99.6c-7.6-8.1-19.8-9.8-29.4-4.3l-32.6,18.8c-13-9.9-27.3-18.1-42.3-24.5V38c0-11.1-7.7-20.8-18.5-23.4
	c-37.6-8.9-77.1-8.9-114.8,0c-10.8,2.6-18.5,12.2-18.5,23.4v37.6c-15.1,6.3-29.3,14.6-42.3,24.5l-32.6-18.8
	c-9.6-5.6-21.8-3.8-29.4,4.3c-26.4,27.9-46.3,61.8-57.5,99.6c-3.1,10.6,1.5,22,11,27.5l32.6,18.8c-2,16.2-2.1,32.7,0,48.9
	l-32.6,18.8c-9.6,5.5-14.2,16.9-11,27.5c11.2,37.7,31.2,71.7,57.5,99.6c7.6,8.1,19.8,9.8,29.4,4.3l32.6-18.8
	c13,9.9,27.3,18.1,42.3,24.5V474c0,11.1,7.7,20.8,18.5,23.4c37.6,8.9,77.1,8.9,114.8,0c10.8-2.6,18.5-12.2,18.5-23.4v-37.6
	c15.1-6.3,29.3-14.6,42.3-24.5l32.6,18.8c9.6,5.6,21.8,3.8,29.4-4.3c26.4-27.9,46.3-61.8,57.5-99.6
	C496.9,316.2,492.3,304.8,482.7,299.3L482.7,299.3z M417.2,399.7L370.9,373c-27,23.1-36.6,28.9-71,41.1v53.5c-28.9,6-58.8,6-87.7,0
	v-53.5c-33.6-11.9-43.4-17.4-71-41.1l-46.3,26.7c-19.7-22.1-34.7-48-43.9-76L97.2,297c-6.5-35.4-6.5-46.6,0-82.1l-46.3-26.7
	c9.2-28,24.2-53.9,43.9-76l46.3,26.8c27.4-23.4,37.1-29.1,71-41.1V44.5c28.9-6,58.8-6,87.7,0v53.5c34,12,43.7,17.6,71,41.1
	l46.3-26.8c19.7,22.1,34.7,48,43.9,76L414.8,215c6.5,35.4,6.5,46.6,0,82.1l46.3,26.7C451.9,351.7,436.9,377.6,417.2,399.7
	L417.2,399.7z M256,160c-52.9,0-96,43.1-96,96s43.1,96,96,96s96-43.1,96-96S308.9,160,256,160z M256,320c-35.3,0-64-28.7-64-64
	s28.7-64,64-64s64,28.7,64,64S291.3,320,256,320z"/>
    </symbol>
    <symbol id="icon-calendar-2" viewBox="0 0 512 512">
        <path fill="currentColor" d="M432,64h-48V12c0-6.6-5.4-12-12-12h-8c-6.6,0-12,5.4-12,12v52H160V12c0-6.6-5.4-12-12-12h-8
	c-6.6,0-12,5.4-12,12v52H80c-26.5,0-48,21.5-48,48v352c0,26.5,21.5,48,48,48h352c26.5,0,48-21.5,48-48V112C480,85.5,458.5,64,432,64
	z M80,96h352c8.8,0,16,7.2,16,16v48H64v-48C64,103.2,71.2,96,80,96z M432,480H80c-8.8,0-16-7.2-16-16V192h384v272
	C448,472.8,440.8,480,432,480z"/>
    </symbol>
    <symbol id="icon-bell" viewBox="0 0 512 512">
        <path fill="currentColor" d="M465.9,366.1C443.6,343.8,416,316.1,416,208c0-79.4-57.8-145.3-133.7-157.8C286,44.8,288,38.5,288,32
	c0-17.7-14.3-32-32-32s-32,14.3-32,32c0,6.8,2.1,13,5.7,18.2C153.8,62.7,96,128.6,96,208c0,108.1-27.6,135.8-49.9,158.1
	C16,396.2,37.3,448,80,448h112c0,35.3,28.7,64,64,64s64-28.7,64-64h111.9C474.6,448,496.1,396.3,465.9,366.1z M256,480
	c-17.6,0-32-14.4-32-32h64C288,465.6,273.6,480,256,480z M431.9,416H80c-14.2,0-21.3-17.3-11.3-27.3C103.6,353.8,128,314.8,128,208
	c0-70.7,57.2-128,128-128c70.7,0,128,57.2,128,128c0,106.4,24.2,145.6,59.3,180.7C453.3,398.7,446.1,416,431.9,416z"/>
    </symbol>
    <symbol id="icon-mail" viewBox="0 0 512 512">
        <path fill="currentColor" d="M464,64H48C21.5,64,0,85.5,0,112v288c0,26.5,21.5,48,48,48h416c26.5,0,48-21.5,48-48V112
	C512,85.5,490.5,64,464,64z M48,96h416c8.8,0,16,7.2,16,16v41.4c-21.9,18.5-53.2,44-150.6,121.3c-16.9,13.4-50.2,45.7-73.4,45.3
	c-23.2,0.4-56.6-31.9-73.4-45.3C85.2,197.4,53.9,171.9,32,153.4V112C32,103.2,39.2,96,48,96z M464,416H48c-8.8,0-16-7.2-16-16V195
	c22.8,18.7,58.8,47.6,130.7,104.7c20.5,16.4,56.7,52.5,93.3,52.3c36.4,0.3,72.3-35.5,93.3-52.3c71.9-57.1,107.9-86,130.7-104.7v205
	C480,408.8,472.8,416,464,416z"/>
    </symbol>
    <symbol id="icon-sale" viewBox="0 0 512 512">
        <path fill="currentColor" d="M355.6,113.8H14.2C6.4,113.8,0,120.2,0,128v150.6c0,3.7,1.5,7.4,4.2,10l24.3,24.3v128c0,23.6,19.1,42.7,42.7,42.7
	h227.6c23.6,0,42.7-19.1,42.7-42.7v-128l24.3-24.3c2.7-2.7,4.2-6.3,4.2-10V128C369.8,120.2,363.4,113.8,355.6,113.8z M341.3,272.6
	l-28.4,28.4v139.8c0,7.8-6.4,14.2-14.2,14.2H71.1c-7.8,0-14.2-6.4-14.2-14.2V301.1l-8.4-8.4l-20.1-20.1V142.2h312.9V272.6z
	 M85.3,256h199.1c7.8,0,14.2-6.4,14.2-14.2v-56.9c0-7.8-6.4-14.2-14.2-14.2H85.3c-7.8,0-14.2,6.4-14.2,14.2v56.9
	C71.1,249.6,77.5,256,85.3,256z M99.6,199.1h170.7v28.4H99.6V199.1z M163.6,312.9H92.4c-3.9,0-7.1,3.2-7.1,7.1v14.2
	c0,3.9,3.2,7.1,7.1,7.1h71.1c3.9,0,7.1-3.2,7.1-7.1V320C170.7,316.1,167.5,312.9,163.6,312.9z M277.3,312.9h-71.1
	c-3.9,0-7.1,3.2-7.1,7.1v14.2c0,3.9,3.2,7.1,7.1,7.1h71.1c3.9,0,7.1-3.2,7.1-7.1V320C284.4,316.1,281.2,312.9,277.3,312.9z
	 M163.6,369.8H92.4c-3.9,0-7.1,3.2-7.1,7.1v14.2c0,3.9,3.2,7.1,7.1,7.1h71.1c3.9,0,7.1-3.2,7.1-7.1v-14.2
	C170.7,373,167.5,369.8,163.6,369.8z M277.3,369.8h-71.1c-3.9,0-7.1,3.2-7.1,7.1v14.2c0,3.9,3.2,7.1,7.1,7.1h71.1
	c3.9,0,7.1-3.2,7.1-7.1v-14.2C284.4,373,281.2,369.8,277.3,369.8z M227.6,35.6c0-3.9-3.2-7.1-7.1-7.1h-42.7c-3.9,0-7.1,3.2-7.1,7.1
	v49.8h56.9V35.6z M284.4,35.6c0-3.9-3.2-7.1-7.1-7.1h-14.2c-3.9,0-7.1,3.2-7.1,7.1v49.8h28.4V35.6z M504.9,28.4h-42.7
	c-3.9,0-7.1,3.2-7.1,7.1v241.8c0,3.9,3.2,7.1,7.1,7.1h42.7c3.9,0,7.1-3.2,7.1-7.1V35.6C512,31.6,508.8,28.4,504.9,28.4z M419.6,28.4
	h-14.2c-3.9,0-7.1,3.2-7.1,7.1v241.8c0,3.9,3.2,7.1,7.1,7.1h14.2c3.9,0,7.1-3.2,7.1-7.1V35.6C426.7,31.6,423.5,28.4,419.6,28.4z
	 M362.7,28.4H320c-3.9,0-7.1,3.2-7.1,7.1v49.8h56.9V35.6C369.8,31.6,366.6,28.4,362.7,28.4z"/>
    </symbol>
    <symbol id="icon-pencil" viewBox="0 0 512 512">
        <path fill="currentColor" d="M493.3,56.2l-37.5-37.5c-25-25-65.5-25-90.5,0L12.8,371.2L0.2,485.3c-1.7,15.3,11.2,28.2,26.5,26.5l114.2-12.7
	l352.4-352.4C518.2,121.8,518.2,81.2,493.3,56.2L493.3,56.2z M164.7,347.3c6.2,6.2,16.4,6.2,22.6,0L368,166.6l30.1,30.1L174,420.7
	V386h-48v-48H91.3l224.1-224.1l30.1,30.1L164.7,324.7C158.4,330.9,158.4,341.1,164.7,347.3L164.7,347.3z M126.1,468.6l-59,6.6
	l-30.3-30.3l6.6-59L63.3,366H98v48h48v34.7L126.1,468.6z M470.6,124.1l-49.9,49.9l-82.7-82.7l49.9-49.9c12.5-12.5,32.7-12.5,45.3,0
	l37.5,37.5C483.1,91.4,483.1,111.6,470.6,124.1L470.6,124.1z"/>
    </symbol>
    <symbol id="icon-whisle" viewBox="0 0 512 512">
        <path fill="currentColor" d="M168,204.3c-28.6,0-51.7,23.1-51.7,51.7s23.1,51.7,51.7,51.7s51.7-23.1,51.7-51.7S196.6,204.3,168,204.3z
	 M168,281.8c-14.2,0-25.8-11.6-25.8-25.8s11.6-25.8,25.8-25.8s25.8,11.6,25.8,25.8S182.2,281.8,168,281.8z M371.3,214.9L349.2,228
	c-2.3,1.4-5.2,1.2-7.4-0.5l-20.3-16.3c-2.2-1.7-3-4.6-2.1-7.1l8.2-23.8c1.8-5.2,0.1-10.9-4.2-14.3c-54.4-43.5-86.2-77.8-155.6-77.8
	c-26.4,0-52.8,6.2-76.9,18.6C81.2,95,67,88,51.7,88C23.2,88,0,111.2,0,139.7c0,15.6,7,30,18.6,39.7
	c-32.4,63.2-22.2,142.6,30.6,195.4C82,407.6,125,424,168,424s86-16.4,118.8-49.2c8.1-8.1,15.1-16.7,21.2-25.9l121.5,69.4
	c5.7,3.2,12.8,1.8,16.7-3.4l63.2-84.2c4.2-5.6,3.2-13.5-2.2-17.8l-121.2-97C381.8,212.5,376,212.1,371.3,214.9L371.3,214.9z
	 M25.8,139.7c0-14.2,11.6-25.8,25.8-25.8c6.5,0,12.6,2.4,17.3,6.6c-6.9,5-13.6,10.5-19.8,16.7c-6.2,6.2-11.5,12.8-16.6,19.6
	C28.5,152.2,25.8,146.2,25.8,139.7z M435.8,385.7c-1.9,2.6-5.5,3.4-8.4,1.8l-127.6-73c-10.6,15.9-45.6,83.4-131.3,83.7
	C42.2,398.6-22.1,245,67.4,155.5c65.8-65.8,146.7-38.4,176.4-19.6c7.4,5.4,56.4,44.5,56.4,44.5l-9.7,28.2
	c-1.8,5.2-0.1,10.9,4.2,14.3l41.5,33.2c4.2,3.4,10,3.8,14.6,1l26-15.4l99.5,79.6c2.7,2.2,3.2,6.2,1.1,9L435.8,385.7L435.8,385.7z"/>
    </symbol>
    <symbol id="icon-users-2" viewBox="0 0 512 512">
        <path fill="currentColor" d="M327,246.6c12-15.6,18.6-34.6,18.6-54.6c0-49.5-40-89.6-89.6-89.6c-49.5,0-89.6,40-89.6,89.6
	c0,20,6.5,39,18.6,54.6c-10.3,3-57,20.6-57,74.2v48.5c0,22.2,18,40.2,40.2,40.2h175.5c22.2,0,40.2-18,40.2-40.2v-48.5
	C384,267.2,337.4,249.6,327,246.6L327,246.6z M256,128c35.3,0,64,28.7,64,64s-28.7,64-64,64s-64-28.7-64-64S220.7,128,256,128z
	 M358.4,369.4c0,8.1-6.5,14.6-14.6,14.6H168.2c-8.1,0-14.6-6.5-14.6-14.6v-48.5c0-22.9,15.2-43,37.1-49.2l16.2-4.6
	c14.5,9.5,31.4,14.6,49.1,14.6s34.6-5.1,49.1-14.6l16.2,4.6c22,6.3,37.1,26.4,37.1,49.2V369.4z M115.2,369.4v-11H36.6
	c-6.1,0-11-4.9-11-11V311c0-17.1,11.4-32.2,27.9-36.9l10.3-2.9c11.4,6.6,24.6,10.4,38.6,10.4c7.9,0,15.8-1.2,23.4-3.7
	c4.6-8.4,10.8-16.1,18.3-22.8c7.4-6.6,15.1-11.3,21.7-14.6c-8-14.8-12.2-31.3-12.2-48.6c0-13,2.4-25.6,7-37.3
	c-14.1-16.3-34.9-26.7-58.2-26.7c-42.3,0-76.8,34.5-76.8,76.8c0,17.4,5.8,33.5,15.6,46.4C20.5,259,0,280.3,0,311v36.4
	C0,367.6,16.4,384,36.6,384h80.7C115.9,379.2,115.2,374.3,115.2,369.4z M102.4,153.6c28.3,0,51.2,22.9,51.2,51.2
	S130.7,256,102.4,256s-51.2-22.9-51.2-51.2S74.1,153.6,102.4,153.6z M470.8,251.2c9.8-12.9,15.6-29,15.6-46.4
	c0-42.3-34.5-76.8-76.8-76.8c-23.2,0-44.1,10.4-58.2,26.7c4.6,11.7,7,24.3,7,37.3c0,17.2-4.2,33.8-12.2,48.6
	c6.6,3.3,14.2,8,21.7,14.6c7.6,6.7,13.7,14.3,18.3,22.8c7.6,2.4,15.4,3.7,23.4,3.6c14.1,0,27.3-3.8,38.6-10.4l10.3,2.9
	c16.5,4.7,27.9,19.8,27.9,36.9v36.4c0,6.1-4.9,11-11,11h-78.6v11c0,5.1-0.7,10-2.1,14.6h80.7c20.2,0,36.6-16.4,36.6-36.6V311
	C512,280.3,491.4,259,470.8,251.2L470.8,251.2z M409.6,256c-28.3,0-51.2-22.9-51.2-51.2s22.9-51.2,51.2-51.2
	c28.3,0,51.2,22.9,51.2,51.2S437.9,256,409.6,256z"/>
    </symbol>
    <symbol id="icon-user-plus" viewBox="0 0 512 512">
        <path fill="currentColor" d="M512,252.8v6.4c0,5.3-4.3,9.6-9.6,9.6H448v54.4c0,5.3-4.3,9.6-9.6,9.6H432c-5.3,0-9.6-4.3-9.6-9.6v-54.4H368
	c-5.3,0-9.6-4.3-9.6-9.6v-6.4c0-5.3,4.3-9.6,9.6-9.6h54.4v-54.4c0-5.3,4.3-9.6,9.6-9.6h6.4c5.3,0,9.6,4.3,9.6,9.6v54.4h54.4
	C507.7,243.2,512,247.5,512,252.8z M300,278.5l-34.8-9.9c18.8-21.1,29.2-48.1,29.2-76.6c0-63.6-51.5-115.2-115.2-115.2
	C115.6,76.8,64,128.3,64,192c0,28.5,10.3,55.5,29.2,76.6l-34.8,9.9C14,291.2,0,331.5,0,355.9v31.8c0,26.2,21.3,47.5,47.5,47.5h263.3
	c26.2,0,47.5-21.3,47.5-47.5v-31.8C358.4,309.8,323.5,285.2,300,278.5L300,278.5z M179.2,102.4c49.5,0,89.6,40.1,89.6,89.6
	s-40.1,89.6-89.6,89.6S89.6,241.5,89.6,192S129.7,102.4,179.2,102.4z M332.8,387.7c0,12.1-9.8,21.9-21.9,21.9H47.5
	c-12.1,0-21.9-9.8-21.9-21.9v-31.8c0-24.5,16.2-46,39.8-52.7l51-14.6c18.5,12.1,40.2,18.6,62.8,18.6s44.3-6.5,62.8-18.6l51,14.6
	c23.5,6.7,39.8,28.3,39.8,52.7V387.7L332.8,387.7z"/>
    </symbol>
    <symbol id="icon-th-list" viewBox="0 0 512 512">
        <path fill="currentColor" d="M0,80v352c0,26.5,21.5,48,48,48h416c26.5,0,48-21.5,48-48V80c0-26.5-21.5-48-48-48H48C21.5,32,0,53.5,0,80z
	 M480,80v90.7H192V64h272C472.8,64,480,71.2,480,80z M480,309.3H192V202.7h288V309.3z M32,202.7h128v106.7H32V202.7z M160,64v106.7
	H32V80c0-8.8,7.2-16,16-16H160z M32,432v-90.7h128V448H48C39.2,448,32,440.8,32,432z M192,448V341.3h288V432c0,8.8-7.2,16-16,16H192
	z"/>
    </symbol>
    <symbol id="icon-plus" viewBox="0 0 512 512">
        <path fill="currentColor" d="M468,238H274V44c0-6.6-5.4-12-12-12h-12c-6.6,0-12,5.4-12,12v194H44c-6.6,0-12,5.4-12,12v12c0,6.6,5.4,12,12,12
	h194v194c0,6.6,5.4,12,12,12h12c6.6,0,12-5.4,12-12V274h194c6.6,0,12-5.4,12-12v-12C480,243.4,474.6,238,468,238z"/>
    </symbol>
    <symbol id="icon-menu-dots" viewBox="0 0 512 512">
        <path fill="currentColor" d="M309.9,256c0,29.8-24.1,53.9-53.9,53.9s-53.9-24.1-53.9-53.9s24.1-53.9,53.9-53.9S309.9,226.2,309.9,256z
	 M458.1,202.1c-29.8,0-53.9,24.1-53.9,53.9c0,29.8,24.1,53.9,53.9,53.9S512,285.8,512,256S487.9,202.1,458.1,202.1z M53.9,202.1
	C24.1,202.1,0,226.2,0,256c0,29.8,24.1,53.9,53.9,53.9s53.9-24.1,53.9-53.9S83.7,202.1,53.9,202.1z"/>
    </symbol>
    <symbol id="icon-charts-2" viewBox="0 0 512 512">
        <path fill="currentColor" d="M500,416c6.6,0,12,5.4,12,12v8c0,6.6-5.4,12-12,12H12c-6.6,0-12-5.4-12-12V76c0-6.6,5.4-12,12-12h8
	c6.6,0,12,5.4,12,12v340H500z M160,346v-84c0-3.3-2.7-6-6-6h-20c-3.3,0-6,2.7-6,6v84c0,3.3,2.7,6,6,6h20
	C157.3,352,160,349.3,160,346z M448,346V102c0-3.3-2.7-6-6-6h-20c-3.3,0-6,2.7-6,6v244c0,3.3,2.7,6,6,6h20
	C445.3,352,448,349.3,448,346z M352,346V198c0-3.3-2.7-6-6-6h-20c-3.3,0-6,2.7-6,6v148c0,3.3,2.7,6,6,6h20
	C349.3,352,352,349.3,352,346z M256,346V134c0-3.3-2.7-6-6-6h-20c-3.3,0-6,2.7-6,6v212c0,3.3,2.7,6,6,6h20
	C253.3,352,256,349.3,256,346z"/>
    </symbol>
    <symbol id="icon-check" viewBox="0 0 512 512">
        <path fill="currentColor" d="M445.5,92l-280,280l-99-99c-4.7-4.7-12.3-4.7-17,0l-11.3,11.3c-4.7,4.7-4.7,12.3,0,17L157,420
	c4.7,4.7,12.3,4.7,17,0l299.8-299.8c4.7-4.7,4.7-12.3,0-17L462.5,92C457.8,87.3,450.2,87.3,445.5,92L445.5,92z"/>
    </symbol>
    <symbol id="icon-cube" viewBox="0 0 512 512">
        <path fill="currentColor" d="M239.2,7.5l-208,78c-18.7,7-31.1,25-31.1,45v225.1c0,18.2,10.3,34.8,26.5,42.9l208,104c13.5,6.8,29.4,6.8,42.9,0
	l208-104c16.3-8.1,26.5-24.8,26.5-42.9V130.5c0-20-12.4-37.9-31.1-44.9l-208-78C262,3.4,250.1,3.4,239.2,7.5z M256,35.4l224,84v0.3
	l-224,97.1L32,119.7v-0.3C32,119.4,256,35.4,256,35.4z M32,154.6l208,90.1v224.7l-208-104V154.6z M272,469.4V244.7l208-90.1v210.9
	L272,469.4L272,469.4z"/>
    </symbol>
    <symbol id="icon-refresh" viewBox="0 0 512 512">
        <path fill="currentColor" d="M492,8h-10c-6.6,0-12,5.4-12,12v110.6C426.9,57.3,347.2,8,256,8C123.2,8,14.8,112.3,8.3,243.5c-0.3,6.8,5.2,12.5,12,12.5h10
	c6.4,0,11.6-4.9,12-11.3C48.2,132.2,141.1,42,256,42c82.9,0,154.7,47.1,190.3,116H332c-6.6,0-12,5.4-12,12v10c0,6.6,5.4,12,12,12
	h160c6.6,0,12-5.4,12-12V20C504,13.4,498.6,8,492,8z M491.7,256h-10c-6.4,0-11.6,4.9-12,11.3C463.8,380.2,370.5,470,256,470
	c-82.6,0-154.7-47-190.3-116H180c6.6,0,12-5.4,12-12v-10c0-6.6-5.4-12-12-12H20c-6.6,0-12,5.4-12,12v160c0,6.6,5.4,12,12,12h10
	c6.6,0,12-5.4,12-12V381.4C85.1,454.7,164.8,504,256,504c132.8,0,241.2-104.3,247.7-235.5C504,261.7,498.5,256,491.7,256L491.7,256z
	"/>
    </symbol>
    <symbol id="icon-filter" viewBox="0 0 512 512">
        <path fill="currentColor" d="M480,0H32C3.6,0-10.7,34.5,9.4,54.6L192,237.3V424c0,9.2,4,18,10.9,24.1l64,56c20.4,17.9,53.1,3.7,53.1-24.1V237.3
	L502.6,54.6C522.7,34.5,508.5,0,480,0z M288,224v256l-64-56V224L32,32h448L288,224z"/>
    </symbol>
    <symbol id="icon-eye" viewBox="0 0 512 512">
        <path fill="currentColor" d="M506.1,234.3C456,149.3,362.5,92.4,256,92.4c-106.5,0-200,56.9-250.1,141.9c-7.9,13.4-7.9,30,0,43.3
	C56,362.7,149.5,419.6,256,419.6c106.5,0,200-56.9,250.1-141.9C514,264.3,514,247.7,506.1,234.3L506.1,234.3z M369.8,231.1
	c0,60.9-50.9,110.2-113.8,110.2S142.2,292,142.2,231.1S193.2,120.9,256,120.9S369.8,170.2,369.8,231.1z M481.6,263.2
	C435.4,341.6,350.1,391.1,256,391.1c-94.5,0-179.6-49.9-225.6-127.9c-2.6-4.5-2.6-10,0-14.4c25.8-43.9,65.2-80.4,113.5-103
	c-18.7,23.3-30.1,53-30.1,85.3c0,76.3,63.3,138.7,142.2,138.7c78.9,0,142.2-62.4,142.2-138.7c0-32.4-11.4-62-30.1-85.3
	c47.8,22.4,87.4,58.7,113.5,103C484.2,253.2,484.2,258.8,481.6,263.2L481.6,263.2z M199.1,227.6c0-9.7,2.4-18.8,6.7-26.8v0
	c0,12.9,10.5,23.4,23.4,23.4c12.9,0,23.4-10.5,23.4-23.4c0-12.9-10.5-23.4-23.4-23.4h0c8-4.3,17.1-6.7,26.8-6.7
	c31.4,0,56.9,25.5,56.9,56.9s-25.5,56.9-56.9,56.9S199.1,259,199.1,227.6z"/>
    </symbol>
    <symbol id="icon-trash" viewBox="0 0 512 512">
        <path fill="currentColor" d="M368,64l-33.6-44.8C325.3,7.1,311.1,0,296,0h-80c-15.1,0-29.3,7.1-38.4,19.2L144,64H40c-13.3,0-24,10.7-24,24v2
	c0,3.3,2.7,6,6,6h20.9l33.2,372.3C78.3,493,99,512,123.9,512h264.2c24.9,0,45.6-19,47.8-43.7L469.1,96H490c3.3,0,6-2.7,6-6v-2
	c0-13.3-10.7-24-24-24H368z M216,32h80c5,0,9.8,2.4,12.8,6.4L328,64H184l19.2-25.6C206.2,34.4,211,32,216,32z M404,465.4
	c-0.7,8.3-7.6,14.6-15.9,14.6H123.9c-8.3,0-15.2-6.3-15.9-14.6L75,96h362L404,465.4z"/>
    </symbol>
    <symbol id="icon-dollar" viewBox="0 0 512 512">
        <path fill="currentColor" d="M321.2,233.4l-108-31.6c-12.5-3.6-21.2-15.3-21.2-28.3c0-16.3,13.2-29.5,29.5-29.5h66.3c12.2,0,24.2,3.7,34.2,10.5
	c6.1,4.1,14.3,3.1,19.5-2l34.8-34c7.1-6.9,6.1-18.4-1.8-24.5C350,74.8,319.4,64.1,288,64V16c0-8.8-7.2-16-16-16h-32
	c-8.8,0-16,7.2-16,16v48h-2.5c-63.7,0-114.9,54.7-109,119.6c4.2,46.1,39.4,83.6,83.8,96.6l102.5,30c12.5,3.7,21.2,15.3,21.2,28.3
	c0,16.3-13.2,29.5-29.5,29.5h-66.3c-12.2,0-24.2-3.7-34.2-10.5c-6.1-4.1-14.3-3.1-19.5,2l-34.8,34c-7.1,6.9-6.1,18.4,1.8,24.5
	c24.5,19.2,55.1,29.9,86.5,30v48c0,8.8,7.2,16,16,16h32c8.8,0,16-7.2,16-16v-48.2c46.6-0.9,90.3-28.6,105.7-72.7
	C415.2,313.5,379.1,250.3,321.2,233.4L321.2,233.4z"/>
    </symbol>
    <symbol id="icon-user-card" viewBox="0 0 512 512">
        <path fill="currentColor" d="M464,64H48C21.5,64,0,85.5,0,112v288c0,26.5,21.5,48,48,48h416c26.5,0,48-21.5,48-48V112C512,85.5,490.5,64,464,64z
	 M480,400c0,8.8-7.2,16-16,16H48c-8.8,0-16-7.2-16-16V128h448V400z M436,352H300c-6.6,0-12-5.4-12-12v-8c0-6.6,5.4-12,12-12h136
	c6.6,0,12,5.4,12,12v8C448,346.6,442.6,352,436,352z M436,288H300c-6.6,0-12-5.4-12-12v-8c0-6.6,5.4-12,12-12h136
	c6.6,0,12,5.4,12,12v8C448,282.6,442.6,288,436,288z M436,224H300c-6.6,0-12-5.4-12-12v-8c0-6.6,5.4-12,12-12h136
	c6.6,0,12,5.4,12,12v8C448,218.6,442.6,224,436,224z M243.1,292.9c-6.1-8.1-14.2-14.7-23.3-19.1c6.9-11.1,10.6-24,10.6-37.1
	c0-38.8-31.6-70.4-70.4-70.4S89.6,198,89.6,236.8c0,13.1,3.7,26,10.6,37.1c-9.1,4.4-17.2,11-23.3,19.1C68.6,304,64,317.7,64,331.5
	v10.9c0,22.9,18.7,41.6,41.6,41.6h108.8c22.9,0,41.6-18.7,41.6-41.6v-10.9C256,317.7,251.4,304,243.1,292.9L243.1,292.9z M160,198.4
	c21.2,0,38.4,17.2,38.4,38.4s-17.2,38.4-38.4,38.4s-38.4-17.2-38.4-38.4S138.8,198.4,160,198.4z M224,342.4c0,5.3-4.3,9.6-9.6,9.6h0
	H105.6c-5.3,0-9.6-4.3-9.6-9.6l0,0v-10.9c0-14.3,9.5-26.8,23.2-30.8l7.2-2.1c10,5.4,21.4,8.5,33.6,8.5s23.6-3.1,33.6-8.5l7.2,2.1
	c13.7,3.9,23.2,16.5,23.2,30.8V342.4z"/>
    </symbol>
    <symbol id="icon-equal-not" viewBox="0 0 512 512">
        <path fill="currentColor" d="M253.9,175.3h-82.4H30.7C13.9,175.3,0,189.2,0,206s13.9,30.7,30.7,30.7h79.4h87h284.2c16.8,0,30.7-13.9,30.7-30.7
	s-13.9-30.7-30.7-30.7H258.5H253.9z"/>
        <path fill="currentColor" d="M253.9,317.3h-82.4H30.7C13.9,317.3,0,331.2,0,348s13.9,30.7,30.7,30.7h79.4h87h284.2c16.8,0,30.7-13.9,30.7-30.7
	s-13.9-30.7-30.7-30.7H258.5H253.9z"/>
        <path fill="inherit" d="M357.4,218l99.6-99.6c11.9-11.9,11.9-31.5,0-43.4c-11.9-11.9-31.5-11.9-43.4,0l-56.2,56.2l-61.5,61.5L95,393.6
	c-11.9,11.9-11.9,31.5,0,43.4c11.9,11.9,31.5,11.9,43.4,0l149.2-149.2L357.4,218z"/>
    </symbol>
    <symbol id="icon-circled-cross" viewBox="0 0 512 512">
        <path fill="currentColor" d="M256,0C114.6,0,0,114.6,0,256s114.6,256,256,256s256-114.6,256-256S397.4,0,256,0z M256,479c-122.5,0-223-99.2-223-223
	c0-122.5,99.2-223,223-223c122.5,0,223,99.2,223,223C479,378.5,379.8,479,256,479z M353.9,184.5L282.3,256l71.5,71.5
	c4.9,4.9,4.9,12.7,0,17.5l-8.8,8.8c-4.9,4.9-12.7,4.9-17.5,0L256,282.3l-71.5,71.5c-4.9,4.9-12.7,4.9-17.5,0l-8.8-8.8
	c-4.9-4.9-4.9-12.7,0-17.5l71.5-71.5l-71.5-71.5c-4.9-4.9-4.9-12.7,0-17.5l8.8-8.8c4.9-4.9,12.7-4.9,17.5,0l71.5,71.5l71.5-71.5
	c4.9-4.9,12.7-4.9,17.5,0l8.8,8.8C358.6,171.8,358.6,179.6,353.9,184.5L353.9,184.5z"/>
    </symbol>
    <symbol id="icon-user" viewBox="0 0 512 512">
        <path fill="currentColor" d="M430.8,312.7l-48.7-13.9C427.8,251.8,432,197.6,432,176C432,78.8,353.3,0,256,0C158.9,0,80,78.7,80,176
	c0,21.6,4.2,75.8,49.9,122.8l-48.7,13.9C19.5,330.3,0,386.4,0,420.3V448c0,35.3,28.7,64,64,64h384c35.3,0,64-28.7,64-64v-27.7
	C512,387.1,493,330.4,430.8,312.7L430.8,312.7z M256,32c79.5,0,144,64.5,144,144s-64.5,144-144,144s-144-64.5-144-144
	S176.5,32,256,32z M480,448c0,17.7-14.3,32-32,32H64c-17.7,0-32-14.3-32-32v-27.7c0-35.7,23.7-67.1,58-76.9l69.9-20
	C177,334.6,210.1,352,256,352c45.9,0,79-17.4,96.1-28.5l69.9,20c34.3,9.8,58,41.2,58,76.9V448z"/>
    </symbol>
    <symbol id="icon-phone" viewBox="0 0 512 512">
        <path fill="currentColor" d="M487.8,24.1L387,0.8c-14.7-3.4-29.8,4.2-35.8,18.1l-46.5,108.5c-5.5,12.7-1.8,27.7,8.9,36.5l53.9,44.1
	c-34,69.2-90.3,125.6-159.6,159.6l-44.1-53.9c-8.8-10.7-23.8-14.4-36.5-8.9L18.9,351.3c-13.9,6-21.5,21-18.1,35.7L24,487.7
	C27.3,502,39.9,512,54.5,512C306.7,512,512,307.8,512,54.5C512,39.9,502,27.3,487.8,24.1z M55.1,480l-23-99.6l107.4-46l59.5,72.8
	c103.6-48.6,159.7-104.9,208.1-208.1l-72.8-59.5l46-107.4l99.6,23C479.7,289.7,289.6,479.7,55.1,480z"/>
    </symbol>
    <symbol id="icon-check-solid" viewBox="0 0 512 512">
        <path fill="currentColor" d="M457.4,62.8L162.8,357.4L54.6,249.1c-5.2-5.2-13.8-5.2-19,0L3.9,280.8c-5.2,5.2-5.2,13.8,0,19l149.4,149.4
	c5.2,5.2,13.8,5.2,19,0l335.7-335.7c5.2-5.2,5.2-13.8,0-19l-31.7-31.7C471.1,57.6,462.6,57.6,457.4,62.8z"/>
    </symbol>
    <symbol id="icon-print" viewBox="0 0 512 512">
        <path fill="currentColor" d="M416,192V81.9c0-6.4-2.5-12.5-7-17L351,7c-4.5-4.5-10.6-7-17-7H120c-13.2,0-24,10.8-24,24v168c-53,0-96,43-96,96v136
	c0,13.2,10.8,24,24,24h72v40c0,13.2,10.8,24,24,24h272c13.2,0,24-10.8,24-24v-40h72c13.2,0,24-10.8,24-24V288
	C512,235,469,192,416,192z M128,32h202.8L384,85.2V256H128V32z M384,480H128v-96h256V480z M480,416h-64v-40c0-13.2-10.8-24-24-24
	H120c-13.2,0-24,10.8-24,24v40H32V288c0-35.3,28.7-64,64-64v40c0,13.2,10.8,24,24,24h272c13.2,0,24-10.8,24-24v-40
	c35.3,0,64,28.7,64,64V416z M452,304c0,11-9,20-20,20s-20-9-20-20s9-20,20-20S452,293,452,304z"/>
    </symbol>
    <symbol id="icon-camera" viewBox="0 0 512 512">
        <path fill="currentColor" d="M256,408c-66.2,0-120-53.8-120-120s53.8-120,120-120s120,53.8,120,120S322.2,408,256,408z M256,200c-48.5,0-88,39.5-88,88
	s39.5,88,88,88s88-39.5,88-88S304.5,200,256,200z M224,288c0-17.6,14.4-32,32-32c8.8,0,16-7.2,16-16s-7.2-16-16-16
	c-35.3,0-64,28.7-64,64c0,8.8,7.2,16,16,16S224,296.8,224,288z M324.3,64c3.3,0,6.3,2.1,7.5,5.2l22.1,58.8H464c8.8,0,16,7.2,16,16
	v288c0,8.8-7.2,16-16,16H48c-8.8,0-16-7.2-16-16V144c0-8.8,7.2-16,16-16h110.2l20.1-53.6c2.3-6.2,8.3-10.4,15-10.4H324.3 M324.3,32
	h-131c-20,0-37.9,12.4-44.9,31.1L136,96H48c-26.5,0-48,21.5-48,48v288c0,26.5,21.5,48,48,48h416c26.5,0,48-21.5,48-48V144
	c0-26.5-21.5-48-48-48h-88l-14.3-38C355.9,42.3,341,32,324.3,32L324.3,32z"/>
    </symbol>
    <symbol id="icon-folder" viewBox="0 0 512 512">
        <path fill="currentColor" d="M464,128H272l-64-64H48C21.5,64,0,85.5,0,112v288c0,26.5,21.5,48,48,48h416c26.5,0,48-21.5,48-48V176
	C512,149.5,490.5,128,464,128z M480,400c0,8.8-7.2,16-16,16H48c-8.8,0-16-7.2-16-16V112c0-8.8,7.2-16,16-16h146.7l64,64H464
	c8.8,0,16,7.2,16,16V400z"/>
    </symbol>
    <symbol id="icon-play" viewBox="0 0 512 512">
        <path fill="currentColor" d="M456.4,214.7L104.4,6.6C75.8-10.3,32,6.1,32,47.9v416.1c0,37.5,40.7,60.1,72.4,41.3l352-208
	C487.8,278.8,487.9,233.2,456.4,214.7L456.4,214.7z M440.2,269.8l-352,208c-10.6,6.1-24.2-1.2-24.2-13.8V47.9
	c0-16.3,16.4-18.4,24.1-13.8l352,208.1C450.6,248.4,450.6,263.6,440.2,269.8L440.2,269.8z"/>
    </symbol>
</svg>